<?xml version="1.0" encoding="UTF-8"?>
<!DOCTYPE svg PUBLIC "-//W3C//DTD SVG 1.1//EN" "http://www.w3.org/Graphics/SVG/1.1/DTD/svg11.dtd">
<!-- Creator: CorelDRAW 2019 (64-Bit) -->
<svg xmlns="http://www.w3.org/2000/svg" xml:space="preserve" width="3.532mm" height="3.532mm" version="1.1" style="shape-rendering:geometricPrecision; text-rendering:geometricPrecision; image-rendering:optimizeQuality; fill-rule:evenodd; clip-rule:evenodd"
viewBox="0 0 2.25 2.25"
 xmlns:xlink="http://www.w3.org/1999/xlink"
 xmlns:xodm="http://www.corel.com/coreldraw/odm/2003">
 <defs>
  <style type="text/css">
   <![CDATA[
    .fil2 {fill:#FEFEFE}
    .fil1 {fill:#4B4B4D}
    .fil0 {fill:#D2AE6D}
   ]]>
  </style>
 </defs>
 <g id="Layer_x0020_1">
  <metadata id="CorelCorpID_0Corel-Layer"/>
  <path class="fil0" d="M0.09 1.2c0,-0.01 0.03,-0.03 0.04,-0.04l0.12 -0.12c0,0 0.01,0.01 0.01,0.01l0.07 0.07c0.13,0.13 0.26,0.25 0.38,0.38 0.01,0.01 0.02,0.03 0.04,0.04 0.01,0.01 0.02,0.02 0.04,0.03 0.02,0.01 0.04,0.01 0.06,0.01 0.03,0 0.04,-0.01 0.06,-0.01 0.01,0.01 0.02,0.02 0.02,0.02 0,0 0,0 0.01,0 0,0 0,0 0.01,0.01 0,0 0,0 0.01,0.01 0.01,0.02 0.03,0.03 0.04,0.04 0.01,0.01 0.02,0.02 0.03,0.03l0.07 0.07c-0.01,0.01 -0.02,0.01 -0.03,0.02 -0.06,0.04 -0.15,0.08 -0.23,0.08 -0.05,0 -0.1,-0.02 -0.14,-0.04 -0.03,-0.02 -0.07,-0.05 -0.1,-0.08 -0.01,-0.01 -0.01,-0.01 -0.02,-0.02l-0.41 -0.41c-0.01,-0.01 -0.08,-0.08 -0.09,-0.09zm1 -1.2l0.06 0c0.01,0 0.02,0 0.03,0 0.01,-0 0.02,0 0.03,0 0.02,0 0.05,0 0.06,0.01 0.07,0.01 0.13,0.02 0.2,0.05 0.03,0.01 0.07,0.02 0.1,0.04 0,0 0.01,0 0.01,0.01 0,0 0.01,0 0.01,0.01 0.04,0.02 0.08,0.04 0.12,0.07l0.04 0.03c0.02,0.01 0.03,0.02 0.05,0.04 0,0 0.01,0 0.01,0.01l0.04 0.03c0.01,0.01 0.04,0.04 0.04,0.04 0.01,0.01 0.02,0.02 0.03,0.04l0.06 0.06c0.01,0.02 0.03,0.03 0.04,0.05 0.02,0.03 0.04,0.05 0.06,0.08 0,0.01 0.01,0.01 0.01,0.02 0,0 0,0.01 0.01,0.01l0.03 0.07c0.01,0.02 0.02,0.04 0.03,0.06 0.02,0.05 0.04,0.1 0.05,0.16 0.04,0.17 0.04,0.35 -0,0.52 -0.02,0.07 -0.04,0.15 -0.08,0.22 -0.01,0.01 -0.01,0.02 -0.02,0.03 -0.02,0.04 -0.04,0.07 -0.06,0.11 -0,0.01 -0.01,0.01 -0.01,0.02 -0.02,0.03 -0.05,0.07 -0.08,0.1l-0.04 0.04c-0.02,0.02 -0.04,0.04 -0.06,0.06l-0.02 0.02c-0.02,0.02 -0.04,0.03 -0.06,0.05 -0.02,0.02 -0.05,0.03 -0.07,0.05 -0.03,0.02 -0.05,0.03 -0.08,0.04 -0.13,0.06 -0.25,0.1 -0.4,0.12 -0.03,0 -0.05,0.01 -0.08,0.01l-0.06 0c-0.03,0 -0.07,-0 -0.1,-0.01 -0.05,-0 -0.1,-0.01 -0.15,-0.03 -0.05,-0.01 -0.09,-0.03 -0.13,-0.04 -0.03,-0.01 -0.06,-0.03 -0.1,-0.04 -0.07,-0.04 -0.13,-0.07 -0.19,-0.12 -0,-0 -0.01,-0.01 -0.01,-0.01 -0,-0 -0.01,-0 -0.01,-0.01 -0,-0 -0.01,-0 -0.01,-0.01l-0.05 -0.04c-0,-0 -0.01,-0.01 -0.01,-0.01 -0.01,-0.01 -0.01,-0.01 -0.02,-0.02l-0.05 -0.05c-0.03,-0.03 -0.05,-0.06 -0.07,-0.09l-0.02 -0.03c-0.01,-0.02 -0.03,-0.04 -0.04,-0.06 -0.03,-0.05 -0.05,-0.09 -0.07,-0.14 -0.02,-0.05 -0.04,-0.1 -0.05,-0.16 -0.01,-0.04 -0.02,-0.08 -0.02,-0.12 -0,-0.01 -0,-0.02 -0,-0.03 -0,-0.01 -0,-0.02 -0,-0.03 -0,-0.02 -0,-0.05 -0,-0.07l0 -0.03c0,-0.05 0,-0.09 0.01,-0.13 0.01,-0.07 0.02,-0.13 0.04,-0.2 0,-0.01 0.01,-0.02 0.01,-0.03 0.01,-0.03 0.02,-0.06 0.03,-0.09l0.02 -0.04c0,-0.01 0.01,-0.01 0.01,-0.02l0.02 -0.05c0,-0 0,-0.01 0.01,-0.01 0.01,-0.02 0.05,-0.08 0.07,-0.1 0,-0 0,-0.01 0.01,-0.01 0.01,-0.02 0.03,-0.03 0.04,-0.05 0.02,-0.02 0.06,-0.06 0.08,-0.08l0.01 -0.01c0.01,-0.01 0.03,-0.02 0.04,-0.03l0.01 -0.01c0.02,-0.02 0.04,-0.03 0.06,-0.05l0.03 -0.02c0,-0 0.01,-0 0.01,-0.01 0.03,-0.02 0.06,-0.04 0.1,-0.06l0.03 -0.02c0.03,-0.02 0.06,-0.03 0.1,-0.04l0.03 -0.01c0.06,-0.02 0.16,-0.04 0.22,-0.05 0.01,-0 0.02,-0 0.03,-0 0.03,-0 0.05,-0.01 0.08,-0.01zm-0.34 1.16c0,-0.09 0.05,-0.16 0.11,-0.22l0.05 -0.05c0,-0 0.01,-0.01 0.01,-0.01l0.18 0.18c-0,0 -0,0.01 -0.01,0.01 -0.02,0.01 -0.04,0.05 -0.05,0.06 -0.02,0.03 -0.02,0.07 -0.01,0.11 0.01,0.04 0.02,0.06 0.04,0.09 0.01,0.02 0.03,0.03 0.04,0.04l0.02 0.02c0.01,0.01 0.02,0.02 0.03,0.03 0,0 0,0.01 0.01,0.01l0.05 0.05c0.04,0.04 0.07,0.06 0.14,0.07 0.06,0.01 0.1,-0.02 0.14,-0.05l0.47 -0.47c0,-0 0.01,-0.01 0.02,-0.02l0.18 0.18c-0,0.01 -0.02,0.02 -0.02,0.02l-0.32 0.32c-0.06,0.06 -0.11,0.11 -0.17,0.17 -0.04,0.04 -0.12,0.11 -0.21,0.12 -0.09,0.01 -0.2,-0.04 -0.26,-0.08 -0.03,-0.02 -0.05,-0.03 -0.07,-0.05 -0.01,-0.01 -0.02,-0.01 -0.02,-0.02 -0.02,-0.01 -0.03,-0.03 -0.04,-0.04l-0.02 -0.02c-0.01,-0.01 -0.02,-0.02 -0.03,-0.03 -0.01,-0.01 -0.01,-0.01 -0.02,-0.02l-0.02 -0.02 -0.05 -0.06c-0.07,-0.09 -0.15,-0.22 -0.15,-0.34zm0.63 -0.74l0.18 0.18 -0.23 0.23c-0,-0 -0.08,-0.08 -0.09,-0.09 -0.03,-0.03 -0.06,-0.06 -0.09,-0.09l0.23 -0.23zm-0.52 -0l0.17 0.17c0.06,0.06 0.11,0.11 0.17,0.17 0.06,0.06 0.12,0.11 0.17,0.17 0.04,0.05 0.12,0.13 0.12,0.23 0,0.09 -0.06,0.21 -0.11,0.28 -0.01,0.01 -0.05,0.07 -0.06,0.07 -0.03,-0.01 -0.05,-0.03 -0.08,-0.05 -0,-0 -0,-0 -0.01,-0.01l-0.05 -0.05c-0,-0 -0.01,-0.01 -0.01,-0.01 -0.01,-0.01 -0.03,-0.03 -0.04,-0.04 0.01,-0.02 0.02,-0.03 0.04,-0.05 0.01,-0.02 0.02,-0.03 0.03,-0.06 0.02,-0.05 0.01,-0.1 -0.01,-0.14 -0.01,-0.01 -0.01,-0.02 -0.02,-0.02l-0.5 -0.5 0.18 -0.18z"/>
  <path class="fil1" d="M0.75 1.16c0,0.12 0.08,0.25 0.15,0.34l0.05 0.06 0.02 0.02c0.01,0.01 0.01,0.01 0.02,0.02 0.01,0.01 0.02,0.02 0.03,0.03l0.02 0.02c0.01,0.01 0.03,0.03 0.04,0.04 0.01,0.01 0.02,0.01 0.02,0.02 0.03,0.02 0.05,0.03 0.07,0.05 0.06,0.04 0.17,0.09 0.26,0.08 0.09,-0.01 0.17,-0.08 0.21,-0.12 0.06,-0.06 0.11,-0.11 0.17,-0.17l0.32 -0.32c0.01,-0.01 0.02,-0.02 0.02,-0.02l-0.18 -0.18c-0,0 -0.01,0.01 -0.02,0.02l-0.47 0.47c-0.04,0.04 -0.08,0.06 -0.14,0.05 -0.06,-0.01 -0.1,-0.04 -0.14,-0.07l-0.05 -0.05c-0,-0 -0,-0.01 -0.01,-0.01 -0.01,-0.01 -0.02,-0.02 -0.03,-0.03l-0.02 -0.02c-0.01,-0.01 -0.02,-0.03 -0.04,-0.04 -0.02,-0.03 -0.03,-0.05 -0.04,-0.09 -0.01,-0.04 -0.01,-0.08 0.01,-0.11 0.01,-0.02 0.03,-0.05 0.05,-0.06 0,-0 0.01,-0.01 0.01,-0.01l-0.18 -0.18c-0,0 -0.01,0.01 -0.01,0.01l-0.05 0.05c-0.05,0.06 -0.11,0.13 -0.11,0.22z"/>
  <path class="fil2" d="M0.69 0.6l0.5 0.5c0.01,0.01 0.01,0.02 0.02,0.02 0.03,0.04 0.03,0.08 0.01,0.14 -0.01,0.02 -0.02,0.04 -0.03,0.06 -0.02,0.02 -0.03,0.03 -0.04,0.05 0.01,0.01 0.03,0.03 0.04,0.04 0,0 0.01,0.01 0.01,0.01l0.05 0.05c0,0 0,0 0.01,0.01 0.02,0.02 0.05,0.04 0.08,0.05 0.01,-0 0.05,-0.06 0.06,-0.07 0.06,-0.07 0.11,-0.19 0.11,-0.28 0,-0.1 -0.07,-0.18 -0.12,-0.23 -0.06,-0.06 -0.11,-0.11 -0.17,-0.17 -0.06,-0.06 -0.11,-0.11 -0.17,-0.17l-0.17 -0.17 -0.18 0.18z"/>
  <path class="fil2" d="M0.09 1.2c0.01,0.01 0.08,0.08 0.09,0.09l0.41 0.41c0.01,0.01 0.01,0.01 0.02,0.02 0.02,0.03 0.07,0.06 0.1,0.08 0.04,0.02 0.08,0.04 0.14,0.04 0.08,-0 0.17,-0.04 0.23,-0.08 0.01,-0.01 0.02,-0.01 0.03,-0.02l-0.07 -0.07c-0.01,-0.01 -0.02,-0.01 -0.03,-0.03 -0.01,-0.01 -0.02,-0.02 -0.04,-0.04 -0,-0 -0,-0 -0.01,-0.01 -0,-0 -0,-0 -0.01,-0.01 -0,-0 -0,-0 -0.01,-0 -0.01,-0 -0.01,-0.02 -0.02,-0.02 -0.02,0.01 -0.03,0.01 -0.06,0.01 -0.02,-0 -0.05,-0.01 -0.06,-0.01 -0.02,-0.01 -0.03,-0.02 -0.04,-0.03 -0.01,-0.01 -0.02,-0.03 -0.04,-0.04 -0.13,-0.13 -0.25,-0.25 -0.38,-0.38l-0.07 -0.07c-0,-0 -0.01,-0.01 -0.01,-0.01l-0.12 0.12c-0.01,0.01 -0.04,0.04 -0.04,0.04z"/>
  <path class="fil1" d="M1.15 0.65c0.02,0.03 0.06,0.06 0.09,0.09 0.01,0.01 0.08,0.09 0.09,0.09l0.23 -0.23 -0.18 -0.18 -0.23 0.23z"/>
 </g>
</svg>
