<?xml version="1.0" encoding="UTF-8"?>
<!DOCTYPE svg PUBLIC "-//W3C//DTD SVG 1.1//EN" "http://www.w3.org/Graphics/SVG/1.1/DTD/svg11.dtd">
<!-- Creator: CorelDRAW 2019 (64-Bit) -->
<svg xmlns="http://www.w3.org/2000/svg" xml:space="preserve" width="3.532mm" height="3.532mm" version="1.1" style="shape-rendering:geometricPrecision; text-rendering:geometricPrecision; image-rendering:optimizeQuality; fill-rule:evenodd; clip-rule:evenodd"
viewBox="0 0 2.13 2.13"
 xmlns:xlink="http://www.w3.org/1999/xlink"
 xmlns:xodm="http://www.corel.com/coreldraw/odm/2003">
 <defs>
  <style type="text/css">
   <![CDATA[
    .fil0 {fill:#333333}
    .fil2 {fill:#CC9933}
    .fil1 {fill:white}
   ]]>
  </style>
 </defs>
 <g id="Layer_x0020_1">
  <metadata id="CorelCorpID_0Corel-Layer"/>
  <g id="_2078047033360">
   <path class="fil0" d="M0.08 1.13c0,-0.01 0.03,-0.03 0.04,-0.04l0.12 -0.12c0,0 0.01,0.01 0.01,0.01l0.06 0.06c0.12,0.12 0.24,0.24 0.36,0.36 0.01,0.01 0.02,0.02 0.04,0.04 0.01,0.01 0.02,0.02 0.04,0.03 0.02,0.01 0.04,0.01 0.06,0.01 0.03,0 0.04,-0 0.06,-0.01 0.01,0.01 0.02,0.02 0.02,0.02 0,0 0,0 0.01,0 0,0 0,0 0.01,0.01 0,0 0,0 0.01,0.01 0.01,0.01 0.03,0.02 0.04,0.04 0.01,0.01 0.02,0.02 0.03,0.03l0.07 0.06c-0.01,0.01 -0.02,0.01 -0.03,0.02 -0.06,0.04 -0.14,0.08 -0.22,0.08 -0.05,0 -0.09,-0.02 -0.13,-0.04 -0.03,-0.02 -0.07,-0.05 -0.09,-0.07 -0.01,-0.01 -0.01,-0.01 -0.02,-0.02l-0.39 -0.39c-0.01,-0.01 -0.07,-0.07 -0.08,-0.08zm0.94 -1.13l0.06 0c0.01,0 0.02,0 0.03,0 0.01,-0 0.02,0 0.03,0 0.02,0 0.04,0 0.06,0.01 0.07,0.01 0.13,0.02 0.19,0.04 0.03,0.01 0.06,0.02 0.09,0.04 0,0 0.01,0 0.01,0 0,0 0.01,0 0.01,0.01 0.04,0.02 0.08,0.04 0.12,0.06l0.04 0.03c0.02,0.01 0.03,0.02 0.05,0.03 0,0 0.01,0 0.01,0.01l0.04 0.03c0.01,0.01 0.04,0.03 0.04,0.04 0.01,0.01 0.02,0.02 0.03,0.03l0.05 0.06c0.01,0.01 0.02,0.03 0.04,0.05 0.02,0.03 0.04,0.05 0.05,0.08 0,0.01 0.01,0.01 0.01,0.02 0,0 0,0.01 0.01,0.01l0.03 0.06c0.01,0.02 0.02,0.04 0.02,0.06 0.02,0.05 0.03,0.1 0.05,0.15 0.04,0.16 0.04,0.33 -0,0.49 -0.02,0.07 -0.04,0.14 -0.07,0.21 -0.01,0.01 -0.01,0.02 -0.02,0.03 -0.02,0.04 -0.04,0.07 -0.06,0.1 -0,0.01 -0.01,0.01 -0.01,0.02 -0.02,0.03 -0.05,0.06 -0.07,0.09l-0.04 0.04c-0.02,0.02 -0.04,0.04 -0.06,0.06l-0.02 0.01c-0.02,0.02 -0.04,0.03 -0.06,0.04 -0.02,0.02 -0.04,0.03 -0.07,0.05 -0.02,0.01 -0.05,0.03 -0.07,0.04 -0.12,0.06 -0.24,0.1 -0.38,0.11 -0.02,0 -0.05,0 -0.07,0.01l-0.06 0c-0.03,0 -0.06,-0 -0.09,-0.01 -0.05,-0 -0.1,-0.01 -0.14,-0.02 -0.04,-0.01 -0.08,-0.02 -0.13,-0.04 -0.03,-0.01 -0.06,-0.02 -0.09,-0.04 -0.07,-0.04 -0.12,-0.07 -0.18,-0.11 -0,-0 -0.01,-0 -0.01,-0.01 -0,-0 -0.01,-0 -0.01,-0.01 -0,-0 -0.01,-0 -0.01,-0.01l-0.04 -0.04c-0,-0 -0.01,-0.01 -0.01,-0.01 -0.01,-0.01 -0.01,-0.01 -0.02,-0.02l-0.04 -0.05c-0.02,-0.03 -0.05,-0.06 -0.07,-0.09l-0.02 -0.03c-0.01,-0.02 -0.03,-0.04 -0.04,-0.06 -0.03,-0.05 -0.04,-0.08 -0.06,-0.13 -0.02,-0.05 -0.04,-0.1 -0.05,-0.15 -0.01,-0.03 -0.02,-0.07 -0.02,-0.11 -0,-0.01 -0,-0.02 -0,-0.03 -0,-0.01 -0,-0.02 -0,-0.03 -0,-0.02 -0,-0.04 -0,-0.06l0 -0.03c0,-0.04 0,-0.08 0.01,-0.12 0.01,-0.06 0.02,-0.13 0.04,-0.19 0,-0.01 0.01,-0.02 0.01,-0.02 0.01,-0.03 0.02,-0.05 0.03,-0.08l0.02 -0.03c0,-0.01 0.01,-0.01 0.01,-0.02l0.02 -0.04c0,-0 0,-0.01 0.01,-0.01 0.01,-0.02 0.05,-0.08 0.07,-0.1 0,-0 0,-0.01 0.01,-0.01 0.01,-0.02 0.02,-0.03 0.04,-0.05 0.01,-0.02 0.05,-0.06 0.07,-0.08l0.01 -0.01c0.01,-0.01 0.02,-0.02 0.03,-0.03l0.01 -0.01c0.02,-0.01 0.04,-0.03 0.05,-0.04l0.03 -0.02c0,-0 0.01,-0 0.01,-0.01 0.03,-0.02 0.06,-0.04 0.09,-0.06l0.03 -0.02c0.03,-0.01 0.06,-0.03 0.09,-0.04l0.02 -0.01c0.06,-0.02 0.15,-0.04 0.21,-0.05 0.01,-0 0.02,-0 0.03,-0 0.02,-0 0.05,-0 0.07,-0.01zm-0.32 1.1c0,-0.08 0.05,-0.15 0.1,-0.2l0.05 -0.05c0,-0 0.01,-0.01 0.01,-0.01l0.17 0.17c-0,0 -0,0.01 -0.01,0.01 -0.01,0.01 -0.04,0.04 -0.05,0.06 -0.02,0.03 -0.02,0.06 -0.01,0.1 0.01,0.04 0.02,0.06 0.04,0.08 0.01,0.02 0.02,0.03 0.04,0.04l0.02 0.02c0.01,0.01 0.02,0.02 0.03,0.03 0,0 0,0.01 0.01,0.01l0.05 0.05c0.04,0.03 0.07,0.06 0.13,0.07 0.06,0.01 0.09,-0.02 0.13,-0.05l0.45 -0.44c0,-0 0.01,-0.01 0.02,-0.01l0.17 0.17c-0,0.01 -0.01,0.02 -0.02,0.02l-0.3 0.3c-0.05,0.05 -0.11,0.11 -0.16,0.16 -0.04,0.04 -0.11,0.11 -0.2,0.12 -0.09,0.01 -0.19,-0.04 -0.24,-0.07 -0.03,-0.02 -0.05,-0.03 -0.07,-0.05 -0.01,-0.01 -0.01,-0.01 -0.02,-0.02 -0.01,-0.01 -0.03,-0.03 -0.04,-0.04l-0.02 -0.01c-0.01,-0.01 -0.02,-0.02 -0.03,-0.02 -0.01,-0.01 -0.01,-0.01 -0.02,-0.02l-0.02 -0.02 -0.05 -0.05c-0.07,-0.08 -0.15,-0.2 -0.15,-0.32zm0.6 -0.7l0.17 0.17 -0.22 0.22c-0,-0 -0.08,-0.08 -0.08,-0.08 -0.02,-0.02 -0.06,-0.06 -0.08,-0.08l0.22 -0.22zm-0.49 -0l0.16 0.16c0.05,0.05 0.11,0.11 0.16,0.16 0.05,0.05 0.11,0.11 0.16,0.16 0.04,0.04 0.11,0.12 0.11,0.22 0,0.09 -0.05,0.2 -0.11,0.27 -0.01,0.01 -0.05,0.06 -0.06,0.07 -0.03,-0.01 -0.05,-0.03 -0.07,-0.05 -0,-0 -0,-0 -0.01,-0l-0.04 -0.04c-0,-0 -0.01,-0.01 -0.01,-0.01 -0.01,-0.01 -0.03,-0.03 -0.04,-0.04 0.01,-0.02 0.02,-0.02 0.04,-0.05 0.01,-0.02 0.02,-0.03 0.03,-0.05 0.02,-0.05 0.01,-0.09 -0.01,-0.13 -0.01,-0.01 -0.01,-0.02 -0.02,-0.02l-0.47 -0.47 0.17 -0.17z"/>
   <path class="fil1" d="M0.71 1.1c0,0.11 0.07,0.24 0.15,0.32l0.05 0.05 0.02 0.02c0.01,0.01 0.01,0.01 0.02,0.02 0.01,0.01 0.02,0.01 0.03,0.02l0.02 0.01c0.01,0.01 0.03,0.03 0.04,0.04 0.01,0.01 0.01,0.01 0.02,0.02 0.02,0.02 0.04,0.03 0.07,0.05 0.06,0.04 0.16,0.08 0.24,0.07 0.09,-0.01 0.16,-0.08 0.2,-0.12 0.05,-0.05 0.11,-0.11 0.16,-0.16l0.3 -0.3c0.01,-0.01 0.02,-0.02 0.02,-0.02l-0.17 -0.17c-0,0 -0.01,0.01 -0.02,0.01l-0.45 0.44c-0.04,0.03 -0.07,0.06 -0.13,0.05 -0.06,-0.01 -0.09,-0.04 -0.13,-0.07l-0.05 -0.05c-0,-0 -0,-0.01 -0.01,-0.01 -0.01,-0.01 -0.02,-0.02 -0.03,-0.03l-0.02 -0.02c-0.01,-0.01 -0.02,-0.02 -0.04,-0.04 -0.02,-0.02 -0.03,-0.05 -0.04,-0.08 -0.01,-0.04 -0.01,-0.07 0.01,-0.1 0.01,-0.02 0.03,-0.05 0.05,-0.06 0,-0 0.01,-0.01 0.01,-0.01l-0.17 -0.17c-0,0 -0.01,0.01 -0.01,0.01l-0.05 0.05c-0.05,0.05 -0.1,0.12 -0.1,0.2z"/>
   <path class="fil2" d="M0.65 0.56l0.47 0.47c0.01,0.01 0.01,0.01 0.02,0.02 0.03,0.04 0.03,0.08 0.01,0.13 -0.01,0.02 -0.02,0.04 -0.03,0.05 -0.02,0.02 -0.02,0.03 -0.04,0.05 0.01,0.01 0.03,0.03 0.04,0.04 0,0 0.01,0.01 0.01,0.01l0.04 0.04c0,0 0,0 0.01,0 0.02,0.02 0.04,0.04 0.07,0.05 0.01,-0 0.05,-0.06 0.06,-0.07 0.05,-0.07 0.11,-0.18 0.11,-0.27 0,-0.1 -0.07,-0.17 -0.11,-0.22 -0.05,-0.06 -0.11,-0.11 -0.16,-0.16 -0.05,-0.05 -0.11,-0.11 -0.16,-0.16l-0.16 -0.16 -0.17 0.17z"/>
   <path class="fil2" d="M0.08 1.13c0.01,0.01 0.07,0.07 0.08,0.08l0.39 0.39c0.01,0.01 0.01,0.01 0.02,0.02 0.02,0.02 0.07,0.06 0.09,0.07 0.04,0.02 0.08,0.04 0.13,0.04 0.08,-0 0.16,-0.04 0.22,-0.08 0.01,-0.01 0.02,-0.01 0.03,-0.02l-0.07 -0.06c-0.01,-0.01 -0.02,-0.01 -0.03,-0.03 -0.01,-0.01 -0.02,-0.02 -0.04,-0.04 -0,-0 -0,-0 -0.01,-0.01 -0,-0 -0,-0 -0.01,-0.01 -0,-0 -0,-0 -0.01,-0 -0.01,-0 -0.01,-0.02 -0.02,-0.02 -0.02,0.01 -0.03,0.01 -0.06,0.01 -0.02,-0 -0.04,-0.01 -0.06,-0.01 -0.02,-0.01 -0.03,-0.02 -0.04,-0.03 -0.01,-0.01 -0.02,-0.02 -0.04,-0.04 -0.12,-0.12 -0.24,-0.24 -0.36,-0.36l-0.06 -0.06c-0,-0 -0.01,-0.01 -0.01,-0.01l-0.12 0.12c-0.01,0.01 -0.04,0.03 -0.04,0.04z"/>
   <path class="fil1" d="M1.09 0.62c0.02,0.02 0.06,0.06 0.08,0.08 0.01,0.01 0.08,0.08 0.08,0.08l0.22 -0.22 -0.17 -0.17 -0.22 0.22z"/>
  </g>
 </g>
</svg>
