<?xml version="1.0" encoding="UTF-8"?>
<!DOCTYPE svg PUBLIC "-//W3C//DTD SVG 1.1//EN" "http://www.w3.org/Graphics/SVG/1.1/DTD/svg11.dtd">
<!-- Creator: CorelDRAW 2019 (64-Bit) -->
<svg xmlns="http://www.w3.org/2000/svg" xml:space="preserve" width="3.532mm" height="3.532mm" version="1.1" style="shape-rendering:geometricPrecision; text-rendering:geometricPrecision; image-rendering:optimizeQuality; fill-rule:evenodd; clip-rule:evenodd"
viewBox="0 0 2.37 2.37"
 xmlns:xlink="http://www.w3.org/1999/xlink"
 xmlns:xodm="http://www.corel.com/coreldraw/odm/2003">
 <defs>
  <style type="text/css">
   <![CDATA[
    .fil0 {fill:#FEFEFE}
    .fil1 {fill:#4B4B4D}
    .fil2 {fill:#CC9933}
   ]]>
  </style>
 </defs>
 <g id="Layer_x0020_1">
  <metadata id="CorelCorpID_0Corel-Layer"/>
  <path class="fil0" d="M0.09 1.26c0,-0.01 0.04,-0.04 0.04,-0.04l0.13 -0.13c0.01,0 0.01,0.01 0.01,0.01l0.07 0.07c0.13,0.13 0.27,0.27 0.4,0.4 0.01,0.01 0.03,0.03 0.04,0.04 0.01,0.01 0.03,0.03 0.05,0.03 0.02,0.01 0.05,0.01 0.07,0.01 0.04,0 0.04,-0.01 0.07,-0.01 0.01,0.01 0.02,0.02 0.02,0.02 0,0 0,0 0.01,0 0,0 0,0 0.01,0.01 0,0 0,0 0.01,0.01 0.02,0.02 0.03,0.03 0.04,0.04 0.01,0.01 0.02,0.02 0.03,0.03l0.08 0.07c-0.01,0.01 -0.02,0.01 -0.03,0.02 -0.07,0.05 -0.16,0.09 -0.24,0.09 -0.06,0 -0.1,-0.02 -0.14,-0.04 -0.03,-0.02 -0.08,-0.05 -0.1,-0.08 -0.01,-0.01 -0.02,-0.02 -0.02,-0.02l-0.43 -0.43c-0.01,-0.01 -0.08,-0.08 -0.09,-0.09zm1.05 -1.26l0.06 0c0.01,0 0.02,0 0.04,0 0.01,-0 0.02,0 0.03,0 0.02,0 0.05,0 0.07,0.01 0.07,0.01 0.14,0.03 0.21,0.05 0.04,0.01 0.07,0.03 0.11,0.04 0,0 0.01,0 0.01,0.01 0,0 0.01,0 0.01,0.01 0.05,0.02 0.09,0.04 0.13,0.07l0.04 0.03c0.02,0.01 0.04,0.02 0.05,0.04 0,0 0.01,0.01 0.01,0.01l0.04 0.03c0.01,0.01 0.04,0.04 0.05,0.04 0.01,0.01 0.02,0.03 0.04,0.04l0.06 0.07c0.01,0.02 0.03,0.03 0.04,0.05 0.02,0.03 0.04,0.06 0.06,0.09 0,0.01 0.01,0.01 0.01,0.02 0,0 0,0.01 0.01,0.01l0.04 0.07c0.01,0.02 0.02,0.04 0.03,0.06 0.02,0.05 0.04,0.11 0.05,0.17 0.04,0.18 0.04,0.37 -0,0.55 -0.02,0.08 -0.05,0.16 -0.08,0.23 -0.01,0.01 -0.01,0.02 -0.02,0.04 -0.02,0.04 -0.04,0.08 -0.07,0.11 -0.01,0.01 -0.01,0.01 -0.01,0.02 -0.02,0.04 -0.05,0.07 -0.08,0.1l-0.04 0.05c-0.02,0.02 -0.04,0.04 -0.07,0.06l-0.02 0.02c-0.02,0.02 -0.04,0.03 -0.06,0.05 -0.02,0.02 -0.05,0.04 -0.08,0.05 -0.03,0.02 -0.05,0.03 -0.08,0.05 -0.13,0.07 -0.27,0.11 -0.42,0.13 -0.03,0 -0.06,0.01 -0.08,0.01l-0.06 0c-0.04,0 -0.07,-0 -0.1,-0.01 -0.05,-0 -0.11,-0.01 -0.15,-0.03 -0.05,-0.01 -0.09,-0.03 -0.14,-0.04 -0.03,-0.01 -0.07,-0.03 -0.1,-0.04 -0.08,-0.04 -0.13,-0.07 -0.2,-0.13 -0,-0 -0.01,-0.01 -0.01,-0.01 -0,-0 -0.01,-0.01 -0.01,-0.01 -0,-0 -0.01,-0.01 -0.01,-0.01l-0.05 -0.04c-0,-0 -0.01,-0.01 -0.01,-0.01 -0.01,-0.01 -0.02,-0.01 -0.02,-0.02l-0.05 -0.05c-0.03,-0.03 -0.05,-0.06 -0.08,-0.1l-0.02 -0.03c-0.01,-0.02 -0.03,-0.04 -0.04,-0.07 -0.03,-0.05 -0.05,-0.09 -0.07,-0.15 -0.02,-0.05 -0.04,-0.11 -0.05,-0.17 -0.01,-0.04 -0.02,-0.08 -0.02,-0.12 -0,-0.01 -0,-0.02 -0,-0.03 -0,-0.01 -0,-0.02 -0,-0.03 -0,-0.02 -0,-0.05 -0,-0.07l0 -0.03c0,-0.05 0,-0.09 0.01,-0.14 0.01,-0.07 0.03,-0.14 0.05,-0.21 0,-0.01 0.01,-0.02 0.01,-0.03 0.01,-0.03 0.02,-0.06 0.04,-0.09l0.02 -0.04c0,-0.01 0.01,-0.02 0.01,-0.02l0.03 -0.05c0,-0 0,-0.01 0.01,-0.01 0.01,-0.03 0.05,-0.09 0.07,-0.11 0,-0 0.01,-0.01 0.01,-0.01 0.01,-0.02 0.03,-0.03 0.04,-0.05 0.02,-0.02 0.06,-0.07 0.08,-0.08l0.01 -0.01c0.01,-0.01 0.03,-0.03 0.04,-0.03l0.01 -0.01c0.02,-0.02 0.04,-0.03 0.06,-0.05l0.03 -0.02c0,-0 0.01,-0 0.01,-0.01 0.03,-0.02 0.07,-0.04 0.1,-0.06l0.04 -0.02c0.03,-0.02 0.07,-0.03 0.1,-0.04l0.03 -0.01c0.06,-0.03 0.17,-0.05 0.23,-0.06 0.01,-0 0.02,-0 0.03,-0 0.03,-0 0.06,-0.01 0.08,-0.01zm-0.35 1.23c0,-0.09 0.06,-0.17 0.11,-0.23l0.05 -0.05c0,-0 0.01,-0.01 0.02,-0.01l0.19 0.19c-0,0 -0.01,0.01 -0.01,0.01 -0.02,0.01 -0.04,0.05 -0.05,0.07 -0.02,0.03 -0.02,0.07 -0.01,0.11 0.01,0.04 0.03,0.07 0.05,0.09 0.01,0.02 0.03,0.03 0.04,0.05l0.03 0.03c0.01,0.01 0.02,0.02 0.04,0.03 0,0 0.01,0.01 0.01,0.01l0.05 0.05c0.04,0.04 0.08,0.07 0.14,0.08 0.06,0.01 0.1,-0.02 0.15,-0.06l0.5 -0.49c0,-0 0.01,-0.01 0.02,-0.02l0.19 0.19c-0,0.01 -0.02,0.02 -0.02,0.02l-0.33 0.33c-0.06,0.06 -0.12,0.12 -0.18,0.18 -0.05,0.05 -0.13,0.12 -0.23,0.13 -0.1,0.01 -0.21,-0.04 -0.27,-0.08 -0.03,-0.02 -0.05,-0.03 -0.08,-0.06 -0.01,-0.01 -0.02,-0.01 -0.02,-0.02 -0.02,-0.01 -0.03,-0.03 -0.05,-0.04l-0.02 -0.02c-0.01,-0.01 -0.02,-0.02 -0.03,-0.03 -0.01,-0.01 -0.01,-0.02 -0.02,-0.02l-0.02 -0.02 -0.05 -0.06c-0.08,-0.09 -0.16,-0.23 -0.16,-0.36zm0.67 -0.78l0.19 0.19 -0.25 0.25c-0,-0 -0.09,-0.09 -0.09,-0.09 -0.03,-0.03 -0.07,-0.07 -0.09,-0.09l0.25 -0.25zm-0.55 -0l0.18 0.18c0.06,0.06 0.12,0.12 0.18,0.18 0.06,0.06 0.12,0.12 0.18,0.18 0.05,0.05 0.12,0.13 0.12,0.24 0,0.1 -0.06,0.22 -0.12,0.3 -0.01,0.01 -0.05,0.07 -0.06,0.08 -0.03,-0.01 -0.06,-0.03 -0.08,-0.05 -0,-0 -0,-0 -0.01,-0.01l-0.05 -0.05c-0,-0 -0.01,-0.01 -0.01,-0.01 -0.01,-0.01 -0.03,-0.03 -0.04,-0.04 0.01,-0.02 0.02,-0.03 0.04,-0.05 0.01,-0.02 0.02,-0.04 0.03,-0.06 0.02,-0.06 0.01,-0.1 -0.01,-0.14 -0.01,-0.01 -0.01,-0.02 -0.02,-0.03l-0.52 -0.53 0.19 -0.19z"/>
  <path class="fil1" d="M0.79 1.23c0,0.13 0.08,0.27 0.16,0.36l0.05 0.06 0.02 0.02c0.01,0.01 0.01,0.02 0.02,0.02 0.01,0.01 0.02,0.02 0.03,0.03l0.02 0.02c0.02,0.01 0.03,0.03 0.05,0.04 0.01,0.01 0.02,0.01 0.02,0.02 0.03,0.02 0.05,0.04 0.08,0.06 0.06,0.04 0.18,0.09 0.27,0.08 0.1,-0.01 0.18,-0.09 0.23,-0.13 0.06,-0.06 0.12,-0.12 0.18,-0.18l0.33 -0.33c0.01,-0.01 0.02,-0.02 0.02,-0.02l-0.19 -0.19c-0,0 -0.01,0.01 -0.02,0.02l-0.5 0.49c-0.04,0.04 -0.08,0.07 -0.15,0.06 -0.07,-0.01 -0.1,-0.04 -0.14,-0.08l-0.05 -0.05c-0,-0 -0,-0.01 -0.01,-0.01 -0.01,-0.01 -0.02,-0.02 -0.04,-0.03l-0.03 -0.03c-0.01,-0.02 -0.03,-0.03 -0.04,-0.05 -0.02,-0.03 -0.04,-0.05 -0.05,-0.09 -0.01,-0.04 -0.01,-0.08 0.01,-0.11 0.01,-0.02 0.04,-0.05 0.05,-0.07 0,-0 0.01,-0.01 0.01,-0.01l-0.19 -0.19c-0.01,0 -0.01,0.01 -0.02,0.01l-0.05 0.05c-0.06,0.06 -0.11,0.14 -0.11,0.23z"/>
  <path class="fil2" d="M0.72 0.63l0.52 0.53c0.01,0.01 0.01,0.02 0.02,0.03 0.03,0.04 0.03,0.09 0.01,0.14 -0.01,0.02 -0.02,0.04 -0.03,0.06 -0.02,0.02 -0.03,0.03 -0.04,0.05 0.01,0.02 0.03,0.03 0.04,0.04 0,0 0.01,0.01 0.01,0.01l0.05 0.05c0,0 0,0 0.01,0.01 0.02,0.02 0.05,0.04 0.08,0.05 0.01,-0 0.06,-0.07 0.06,-0.08 0.06,-0.08 0.12,-0.2 0.12,-0.3 0,-0.11 -0.08,-0.19 -0.12,-0.24 -0.06,-0.06 -0.12,-0.12 -0.18,-0.18 -0.06,-0.06 -0.12,-0.12 -0.18,-0.18l-0.18 -0.18 -0.19 0.19z"/>
  <path class="fil2" d="M0.09 1.26c0.01,0.01 0.08,0.08 0.09,0.09l0.43 0.43c0.01,0.01 0.02,0.01 0.02,0.02 0.02,0.03 0.07,0.06 0.1,0.08 0.04,0.02 0.09,0.04 0.14,0.04 0.09,-0 0.17,-0.04 0.24,-0.09 0.01,-0.01 0.02,-0.01 0.03,-0.02l-0.08 -0.07c-0.01,-0.01 -0.02,-0.02 -0.03,-0.03 -0.01,-0.01 -0.02,-0.02 -0.04,-0.04 -0,-0 -0,-0 -0.01,-0.01 -0,-0 -0,-0 -0.01,-0.01 -0,-0 -0,-0 -0.01,-0 -0.01,-0 -0.02,-0.02 -0.02,-0.02 -0.03,0.01 -0.03,0.01 -0.07,0.01 -0.02,-0 -0.05,-0.01 -0.07,-0.01 -0.02,-0.01 -0.03,-0.02 -0.05,-0.03 -0.01,-0.01 -0.03,-0.03 -0.04,-0.04 -0.13,-0.13 -0.27,-0.27 -0.4,-0.4l-0.07 -0.07c-0,-0 -0.01,-0.01 -0.01,-0.01l-0.13 0.13c-0.01,0.01 -0.04,0.04 -0.04,0.04z"/>
  <path class="fil1" d="M1.21 0.69c0.03,0.03 0.07,0.07 0.09,0.09 0.01,0.01 0.09,0.09 0.09,0.09l0.25 -0.25 -0.19 -0.19 -0.25 0.25z"/>
 </g>
</svg>
