<?xml version="1.0" encoding="UTF-8"?>
<!DOCTYPE svg PUBLIC "-//W3C//DTD SVG 1.1//EN" "http://www.w3.org/Graphics/SVG/1.1/DTD/svg11.dtd">
<!-- Creator: CorelDRAW 2019 (64-Bit) -->
<svg xmlns="http://www.w3.org/2000/svg" xml:space="preserve" width="25.8792mm" height="3.6976mm" version="1.1" style="shape-rendering:geometricPrecision; text-rendering:geometricPrecision; image-rendering:optimizeQuality; fill-rule:evenodd; clip-rule:evenodd"
viewBox="0 0 135.01 19.29"
 xmlns:xlink="http://www.w3.org/1999/xlink"
 xmlns:xodm="http://www.corel.com/coreldraw/odm/2003">
 <defs>
  <style type="text/css">
   <![CDATA[
    .fil0 {fill:none}
    .fil2 {fill:#D2AE6D}
    .fil1 {fill:url(#id0)}
   ]]>
  </style>
  <linearGradient id="id0" gradientUnits="userSpaceOnUse" x1="24.31" y1="0.74" x2="24.31" y2="19.22">
   <stop offset="0" style="stop-opacity:1; stop-color:#CC9933"/>
   <stop offset="1" style="stop-opacity:1; stop-color:#8A5C00"/>
  </linearGradient>
 </defs>
 <g id="Layer_x0020_1">
  <metadata id="CorelCorpID_0Corel-Layer"/>
  <rect class="fil0" y="-0" width="135.01" height="19.29"/>
  <path class="fil1" d="M30.09 0.74l3.4 0 0 12.16c0,1.45 -0.26,2.6 -0.79,3.45 -0.53,0.85 -1.49,1.54 -2.87,2.07 -1.39,0.53 -3.2,0.8 -5.45,0.8 -2.18,0 -3.97,-0.23 -5.36,-0.7 -1.39,-0.47 -2.38,-1.14 -2.98,-2.02 -0.59,-0.88 -0.89,-2.08 -0.89,-3.61l0 -12.16 3.1 0 0 10.68c0,1.25 0.19,2.17 0.57,2.76 0.38,0.59 1.02,1.05 1.94,1.37 0.92,0.32 2.04,0.48 3.36,0.48 2.26,0 3.59,-0.32 4.55,-0.95 0.96,-0.64 1.44,-1.86 1.44,-3.67l0 -10.68z"/>
  <path class="fil2" d="M54.72 15.69l0 3.4 -12.16 0c-1.45,0 -2.6,-0.26 -3.45,-0.79 -0.85,-0.53 -1.54,-1.49 -2.07,-2.87 -0.53,-1.39 -0.8,-3.2 -0.8,-5.45 0,-2.18 0.23,-3.97 0.7,-5.36 0.47,-1.39 1.14,-2.38 2.02,-2.98 0.88,-0.59 2.08,-0.89 3.61,-0.89l12.16 0 0 3.1 -10.68 0c-1.25,0 -2.17,0.19 -2.76,0.57 -0.59,0.38 -1.05,1.02 -1.37,1.94 -0.32,0.91 -0.48,2.04 -0.48,3.36 0,2.26 0.32,3.59 0.95,4.55 0.64,0.96 1.86,1.44 3.67,1.44l10.68 0z"/>
  <path class="fil2" d="M62.24 19.16l-3.4 0 0 -12.16c0,-1.45 0.26,-2.6 0.79,-3.45 0.53,-0.85 1.49,-1.54 2.87,-2.07 1.39,-0.53 3.2,-0.8 5.45,-0.8 2.18,0 3.97,0.23 5.36,0.7 1.39,0.47 2.38,1.14 2.98,2.02 0.59,0.88 0.89,2.08 0.89,3.61l0 12.16 -3.1 0 0 -7.51 -11.85 0 0 7.51zm11.85 -10.91c-0.02,-1.13 -0.21,-1.98 -0.56,-2.53 -0.38,-0.59 -1.02,-1.05 -1.94,-1.37 -0.91,-0.32 -2.04,-0.48 -3.36,-0.48 -2.26,0 -3.59,0.32 -4.55,0.95 -0.92,0.61 -1.4,1.75 -1.44,3.44l11.85 0z"/>
  <path class="fil2" d="M92.6 8.38l0 0.03 0.42 0c1.52,0 2.72,0.24 3.6,0.83 3.36,2.27 3.25,6.85 -0.16,8.98 -0.85,0.53 -1.99,0.79 -3.44,0.79l-12.12 0 0 -3.03 11.06 0c4.46,0 4.63,-4.22 0.63,-4.63l0 0.06 -5.65 0c-1.45,0 -2.6,-0.26 -3.45,-0.79 -3.42,-2.14 -3.53,-6.71 -0.16,-8.98 0.88,-0.59 2.08,-0.89 3.61,-0.89l12.16 0 0 3.1 -11.1 0c-4.65,0 -4.7,4.54 0,4.54l4.59 0z"/>
  <polygon class="fil2" points="105.94,19.16 102.55,19.16 102.55,0.74 105.94,0.74 105.94,8.25 117.79,8.25 117.79,0.74 120.9,0.74 120.9,19.16 117.79,19.16 117.79,11.65 105.94,11.65 "/>
 </g>
</svg>
